<svg xmlns="http://www.w3.org/2000/svg" viewBox="0 0 12 16"><g id="Layer_2" data-name="Layer 2"><g id="Layer_1-2" data-name="Layer 1"><path d="M8,2H2a2,2,0,0,0-1.41.59A2,2,0,0,0,0,4V15.5a.48.48,0,0,0,.07.26.55.55,0,0,0,.19.18A.58.58,0,0,0,.52,16a.5.5,0,0,0,.26-.08L5,13.1l4.22,2.82a.5.5,0,0,0,.26.08.58.58,0,0,0,.26-.06.55.55,0,0,0,.19-.18A.48.48,0,0,0,10,15.5V4A2,2,0,0,0,8,2ZM9,14.57,5.28,12.08A.54.54,0,0,0,5,12a.57.57,0,0,0-.28.08L1,14.57V4a1,1,0,0,1,.29-.71A1,1,0,0,1,2,3H8A1,1,0,0,1,9,4Z"/><path d="M11.41.59A2,2,0,0,0,10,0H4A2,2,0,0,0,3,.27,2,2,0,0,0,2.27,1H10a1,1,0,0,1,.71.29A1,1,0,0,1,11,2V13.77l.22.15a.5.5,0,0,0,.26.08.58.58,0,0,0,.26-.06.55.55,0,0,0,.19-.18A.48.48,0,0,0,12,13.5V2A2,2,0,0,0,11.41.59Z"/></g></g></svg>