<svg xmlns="http://www.w3.org/2000/svg" viewBox="0 0 29.71 16"><defs><style>.cls-1{fill-rule:evenodd;}</style></defs><g id="Layer_2" data-name="Layer 2"><g id="Layer_1-2" data-name="Layer 1"><path class="cls-1" d="M29.62.71a1,1,0,0,0-.24-.37A1.19,1.19,0,0,0,29,.09,1,1,0,0,0,28.57,0a1.12,1.12,0,0,0-.44.09,1.05,1.05,0,0,0-.37.25l-12.9,12.9L2,.34A.94.94,0,0,0,1.58.09,1.12,1.12,0,0,0,1.14,0,1.07,1.07,0,0,0,.71.09.94.94,0,0,0,.34.34.94.94,0,0,0,.09.71,1.07,1.07,0,0,0,0,1.14a1.12,1.12,0,0,0,.09.44A.94.94,0,0,0,.34,2L14.05,15.66a.94.94,0,0,0,.37.25,1.12,1.12,0,0,0,.44.09,1.07,1.07,0,0,0,.43-.09.94.94,0,0,0,.37-.25L29.38,2a1,1,0,0,0,.24-.37,1.12,1.12,0,0,0,.09-.44A1.07,1.07,0,0,0,29.62.71Z"/></g></g></svg>