<svg xmlns="http://www.w3.org/2000/svg" viewBox="0 0 16 16"><g id="Layer_2" data-name="Layer 2"><g id="Layer_1-2" data-name="Layer 1"><path d="M15.66,14.05,9.62,8l6-6a.94.94,0,0,0,.25-.37A1.12,1.12,0,0,0,16,1.14a1.07,1.07,0,0,0-.09-.43.94.94,0,0,0-.25-.37,1.05,1.05,0,0,0-.37-.25A1.07,1.07,0,0,0,14.86,0a1.12,1.12,0,0,0-.44.09,1.05,1.05,0,0,0-.37.25L8,6.38l-6-6A.94.94,0,0,0,1.58.09,1.12,1.12,0,0,0,1.14,0,1.07,1.07,0,0,0,.71.09.94.94,0,0,0,.34.34.94.94,0,0,0,.09.71,1.07,1.07,0,0,0,0,1.14a1.12,1.12,0,0,0,.09.44A.94.94,0,0,0,.34,2L6.38,8l-6,6.05a1.05,1.05,0,0,0-.25.37,1.12,1.12,0,0,0-.09.44,1.07,1.07,0,0,0,.09.43,1.05,1.05,0,0,0,.25.37.94.94,0,0,0,.37.25,1.07,1.07,0,0,0,.43.09,1.12,1.12,0,0,0,.44-.09A.94.94,0,0,0,2,15.66L8,9.62l6.05,6a.94.94,0,0,0,.37.25,1.12,1.12,0,0,0,.44.09,1.07,1.07,0,0,0,.43-.09,1.17,1.17,0,0,0,.62-.62,1.07,1.07,0,0,0,.09-.43,1.12,1.12,0,0,0-.09-.44A.94.94,0,0,0,15.66,14.05Z"/></g></g></svg>