<svg xmlns="http://www.w3.org/2000/svg" viewBox="0 0 18.29 16"><g id="Layer_2" data-name="Layer 2"><g id="Layer_1-2" data-name="Layer 1"><path d="M5.14,1.14h8A.62.62,0,0,0,13.55,1a.62.62,0,0,0,.16-.41.58.58,0,0,0-.16-.4A.58.58,0,0,0,13.14,0h-8a.56.56,0,0,0-.4.17.54.54,0,0,0-.17.4A.58.58,0,0,0,4.74,1,.59.59,0,0,0,5.14,1.14Z"/><path d="M2.86,3.43H15.43a.54.54,0,0,0,.4-.17.56.56,0,0,0,.17-.4.58.58,0,0,0-.17-.41.58.58,0,0,0-.4-.16H2.86a.62.62,0,0,0-.41.16.62.62,0,0,0-.16.41.59.59,0,0,0,.16.4A.58.58,0,0,0,2.86,3.43Z"/><path d="M17.78,5.07a1.7,1.7,0,0,0-1.21-.5H1.71a1.72,1.72,0,0,0-1.21.5A1.74,1.74,0,0,0,0,6.29v8A1.71,1.71,0,0,0,1.71,16H16.57a1.72,1.72,0,0,0,1.72-1.71v-8A1.71,1.71,0,0,0,17.78,5.07Zm-.64,9.22a.59.59,0,0,1-.16.4.58.58,0,0,1-.41.17H1.71a.58.58,0,0,1-.57-.57v-8a.57.57,0,0,1,.17-.41.56.56,0,0,1,.4-.17H16.57a.58.58,0,0,1,.41.17.6.6,0,0,1,.16.41Z"/></g></g></svg>