<svg xmlns="http://www.w3.org/2000/svg" viewBox="0 0 13.87 16"><defs><style>.cls-1{fill-rule:evenodd;}</style></defs><g id="Layer_2" data-name="Layer 2"><g id="Layer_1-2" data-name="Layer 1"><path class="cls-1" d="M6.93,5.87A.51.51,0,0,0,6.56,6a.55.55,0,0,0-.16.38v6.4a.55.55,0,0,0,.16.38.51.51,0,0,0,.37.15.54.54,0,0,0,.38-.15.55.55,0,0,0,.16-.38V6.4A.55.55,0,0,0,7.31,6,.54.54,0,0,0,6.93,5.87Z"/><path class="cls-1" d="M4.27,5.87A.54.54,0,0,0,3.89,6a.55.55,0,0,0-.16.38v6.4a.55.55,0,0,0,.16.38.54.54,0,0,0,.38.15.51.51,0,0,0,.37-.15.55.55,0,0,0,.16-.38V6.4A.55.55,0,0,0,4.64,6,.51.51,0,0,0,4.27,5.87Z"/><path class="cls-1" d="M9.6,5.87a.51.51,0,0,0-.53.53v6.4a.53.53,0,1,0,1.06,0V6.4a.51.51,0,0,0-.53-.53Z"/><path class="cls-1" d="M13.55,1.38a1.06,1.06,0,0,0-.75-.31H9.07A1.07,1.07,0,0,0,8.75.31,1.06,1.06,0,0,0,8,0H5.87A1.06,1.06,0,0,0,4.8,1.07H1.07A1.06,1.06,0,0,0,0,2.13V3.2A1.06,1.06,0,0,0,.31,4a1.07,1.07,0,0,0,.76.32H1.6v9.6A2.12,2.12,0,0,0,3.73,16h6.4a2.13,2.13,0,0,0,1.51-.62,2.15,2.15,0,0,0,.63-1.51V4.27h.53A1.09,1.09,0,0,0,13.87,3.2V2.13A1.07,1.07,0,0,0,13.55,1.38ZM11.2,13.87a1.06,1.06,0,0,1-1.07,1.06H3.73a1.06,1.06,0,0,1-1.06-1.06V4.33l.12-.06h8.28l.13.06ZM12.8,3.2H1.07V2.13H12.8Z"/></g></g></svg>