<svg xmlns="http://www.w3.org/2000/svg" viewBox="0 0 21.33 16"><g id="Layer_2" data-name="Layer 2"><g id="Layer_1-2" data-name="Layer 1"><path d="M20.55.78A2.67,2.67,0,0,0,18.67,0h-16A2.66,2.66,0,0,0,0,2.67V13.33A2.66,2.66,0,0,0,2.67,16h16a2.66,2.66,0,0,0,2.66-2.67V2.67A2.67,2.67,0,0,0,20.55.78ZM1.33,12.15V4.51L7.68,8.32,1.33,12.15Zm18.15,2.24a1.35,1.35,0,0,1-.81.28h-16a1.3,1.3,0,0,1-.81-.28,1.28,1.28,0,0,1-.48-.71L9,9.09l1.7,1,1.69-1L20,13.68A1.32,1.32,0,0,1,19.48,14.39ZM20,4.51v7.64L13.66,8.32,20,4.51ZM20,3l-9.33,5.6L1.33,3V2.67A1.33,1.33,0,0,1,2.67,1.33h16A1.33,1.33,0,0,1,20,2.67Z"/></g></g></svg>