<svg xmlns="http://www.w3.org/2000/svg" viewBox="0 0 16 16"><g id="Layer_2" data-name="Layer 2"><g id="Layer_1-2" data-name="Layer 1"><path d="M13.66,2.34A8,8,0,1,0,16,8,8,8,0,0,0,13.66,2.34ZM13,13A7,7,0,1,1,15,8,7,7,0,0,1,13,13Z"/><path d="M7.45,8.5a.5.5,0,0,0,.18.36.53.53,0,0,0,.74,0,.5.5,0,0,0,.18-.36L8.9,5a1,1,0,0,0,0-.38.92.92,0,0,0-.19-.33.9.9,0,0,0-1.34,0,.92.92,0,0,0-.19.33A1,1,0,0,0,7.1,5Z"/><path d="M8.71,10.29a.93.93,0,0,0-.33-.21.94.94,0,0,0-.76,0,.9.9,0,0,0-.54.54A1,1,0,0,0,7,11a1,1,0,0,0,.29.71A1.05,1.05,0,0,0,8,12a1,1,0,0,0,.71-.29,1,1,0,0,0,.22-1.09A1.19,1.19,0,0,0,8.71,10.29Z"/></g></g></svg>