<svg xmlns="http://www.w3.org/2000/svg" viewBox="0 0 17.4 16"><defs><style>.cls-1{fill-rule:evenodd;}</style></defs><g id="Layer_2" data-name="Layer 2"><g id="Layer_1-2" data-name="Layer 1"><path class="cls-1" d="M17.23,8.05,14.5,5.32V1.5a.58.58,0,0,0-.58-.58H12.76a.58.58,0,0,0-.58.58V3L9.52.34a1.16,1.16,0,0,0-1.64,0L.17,8.05A.58.58,0,1,0,1,8.87l.75-.75v6.14A1.74,1.74,0,0,0,3.48,16H13.92a1.74,1.74,0,0,0,1.74-1.74V8.12l.75.75a.58.58,0,0,0,.41.17.57.57,0,0,0,.41-.17.58.58,0,0,0,0-.82ZM14.5,14.26a.58.58,0,0,1-.58.58H3.48a.58.58,0,0,1-.58-.58V7l5.8-5.8L14.5,7Z"/></g></g></svg>