<svg xmlns="http://www.w3.org/2000/svg" viewBox="0 0 15 16"><g id="Layer_2" data-name="Layer 2"><g id="Layer_1-2" data-name="Layer 1"><path d="M14.41.59A2,2,0,0,0,13,0H3A2,2,0,0,0,1.59.59,2,2,0,0,0,1,2V3H2V2a1,1,0,0,1,.29-.71A1,1,0,0,1,3,1H13a1,1,0,0,1,.71.29A1,1,0,0,1,14,2V14a1,1,0,0,1-1,1H3a1,1,0,0,1-1-1V13H1v1a2,2,0,0,0,2,2H13a2,2,0,0,0,2-2V2A2,2,0,0,0,14.41.59Z"/><path d="M.5,6h2a.5.5,0,0,0,.35-.85A.47.47,0,0,0,2.5,5H2V4.5a.47.47,0,0,0-.15-.35.48.48,0,0,0-.7,0A.47.47,0,0,0,1,4.5V5H.5a.47.47,0,0,0-.35.15.48.48,0,0,0,0,.7A.47.47,0,0,0,.5,6Z"/><path d="M2.85,11.85A.5.5,0,0,0,2.5,11H2v-.5a.47.47,0,0,0-.15-.35.48.48,0,0,0-.7,0A.47.47,0,0,0,1,10.5V11H.5a.47.47,0,0,0-.35.15.48.48,0,0,0,0,.7A.47.47,0,0,0,.5,12h2A.47.47,0,0,0,2.85,11.85Z"/><path d="M.5,9h2a.5.5,0,0,0,0-1H2V7.5a.47.47,0,0,0-.15-.35.48.48,0,0,0-.7,0A.47.47,0,0,0,1,7.5V8H.5a.47.47,0,0,0-.35.15.48.48,0,0,0,0,.7A.47.47,0,0,0,.5,9Z"/></g></g></svg>