<svg xmlns="http://www.w3.org/2000/svg" viewBox="0 0 31.99 16"><g id="Layer_2" data-name="Layer 2"><g id="Layer_1-2" data-name="Layer 1"><path d="M31.91,7.62a1.15,1.15,0,0,0-.21-.33l-3-3a1.15,1.15,0,0,0-.33-.21A1,1,0,0,0,28,4H14.92A8,8,0,0,0,11.06.61,8,8,0,1,0,5.93,15.73a8.06,8.06,0,0,0,5.13-.34A8,8,0,0,0,14.92,12H16a1,1,0,0,0,.39-.08,1,1,0,0,0,.32-.21L18,10.41l1.29,1.3a1.15,1.15,0,0,0,.33.21A1,1,0,0,0,20,12a1.09,1.09,0,0,0,.39-.08,1,1,0,0,0,.32-.21L22,10.41l1.29,1.3a1.15,1.15,0,0,0,.33.21.94.94,0,0,0,.76,0,.93.93,0,0,0,.33-.21L26,10.41l1.29,1.3a.93.93,0,0,0,.33.21.94.94,0,0,0,.76,0,1.15,1.15,0,0,0,.33-.21l3-3a1.15,1.15,0,0,0,.21-.33.94.94,0,0,0,0-.76ZM28,9.59,26.7,8.29a1.19,1.19,0,0,0-.33-.22,1.07,1.07,0,0,0-.76,0,1.06,1.06,0,0,0-.33.22L24,9.59,22.7,8.29a1,1,0,0,0-.33-.22,1.07,1.07,0,0,0-.76,0,1.19,1.19,0,0,0-.33.22L20,9.59,18.7,8.29a1,1,0,0,0-.32-.22A1.07,1.07,0,0,0,18,8a1,1,0,0,0-.38.07,1,1,0,0,0-.32.22L15.58,10H14.32a1,1,0,0,0-.53.15,1,1,0,0,0-.37.42A6,6,0,0,1,11.36,13a6,6,0,0,1-8.43-1.76,6,6,0,0,1-.19-6.1A6,6,0,0,1,11.2,2.93a6,6,0,0,1,2.22,2.5,1,1,0,0,0,.37.42,1,1,0,0,0,.53.15H27.58l2,2Z"/><path d="M6,6a2,2,0,1,0,0,4A2,2,0,0,0,6,6Z"/></g></g></svg>