<svg xmlns="http://www.w3.org/2000/svg" viewBox="0 0 12 16"><g id="Layer_2" data-name="Layer 2"><g id="Layer_1-2" data-name="Layer 1"><path d="M11.9,4.9A6,6,0,0,0,8.34.48,5.85,5.85,0,0,0,5.45,0,5.91,5.91,0,0,0,2.69,1a6,6,0,0,0-2,2.16A6,6,0,0,0,.47,8.34a6.1,6.1,0,0,0,1.36,2,1.87,1.87,0,0,1,.45.62L3,12.7a.55.55,0,0,0,.18.22A.57.57,0,0,0,3.5,13a.5.5,0,0,0,0,1,.5.5,0,0,0,0,1l.22.45a1.09,1.09,0,0,0,.37.4,1,1,0,0,0,.53.15H7.38a1,1,0,0,0,.53-.15,1.09,1.09,0,0,0,.37-.4L8.5,15a.5.5,0,0,0,0-1,.5.5,0,0,0,0-1A.51.51,0,0,0,9,12.7l.76-1.77a2.12,2.12,0,0,1,.45-.62,5.9,5.9,0,0,0,1.55-2.49A6,6,0,0,0,11.9,4.9ZM10.89,7A4.89,4.89,0,0,1,9.48,9.59a3.29,3.29,0,0,0-.68.94L8.17,12H3.83L3.2,10.53a3.11,3.11,0,0,0-.68-.94A5,5,0,0,1,1.36,4.12,5.07,5.07,0,0,1,3.21,1.85,5,5,0,0,1,6,1a5.07,5.07,0,0,1,2.8.85,5.11,5.11,0,0,1,1.84,2.27A5,5,0,0,1,10.89,7Z"/></g></g></svg>