<svg xmlns="http://www.w3.org/2000/svg" viewBox="0 0 21.33 16"><defs><style>.cls-1{fill-rule:evenodd;}</style></defs><g id="Layer_2" data-name="Layer 2"><g id="Layer_1-2" data-name="Layer 1"><path class="cls-1" d="M20.75.59A2,2,0,0,0,19.33,0H8.67a2,2,0,0,0-2,2V4.67a.67.67,0,0,0,1.14.47A.7.7,0,0,0,8,4.67V2a.63.63,0,0,1,.2-.47.63.63,0,0,1,.47-.2H19.33a.67.67,0,0,1,.48.2A.67.67,0,0,1,20,2V14a.67.67,0,0,1-.19.47.67.67,0,0,1-.48.2H8.67A.68.68,0,0,1,8,14V11.33a.67.67,0,0,0-1.14-.47.7.7,0,0,0-.19.47V14a2,2,0,0,0,2,2H19.33a2,2,0,0,0,2-2V2A2,2,0,0,0,20.75.59Z"/><path class="cls-1" d="M5.14,11.53,2.28,8.67H14a.67.67,0,0,0,0-1.34H2.28L5.14,4.47a.6.6,0,0,0,.14-.21.59.59,0,0,0,0-.52.6.6,0,0,0-.14-.21.86.86,0,0,0-.22-.15.7.7,0,0,0-.25,0,.75.75,0,0,0-.26,0,.8.8,0,0,0-.21.15l-4,4a.51.51,0,0,0-.15.21.7.7,0,0,0,0,.52.51.51,0,0,0,.15.21l4,4a.8.8,0,0,0,.21.15.75.75,0,0,0,.26.05.7.7,0,0,0,.25-.05.86.86,0,0,0,.22-.15.6.6,0,0,0,.14-.21.59.59,0,0,0,0-.52A.6.6,0,0,0,5.14,11.53Z"/></g></g></svg>