<svg xmlns="http://www.w3.org/2000/svg" viewBox="0 0 16 16"><g id="Layer_2" data-name="Layer 2"><g id="Layer_1-2" data-name="Layer 1"><path d="M15.91,1.7a1.27,1.27,0,0,0,0-.94,1.23,1.23,0,0,0-.27-.4,1.41,1.41,0,0,0-.4-.27,1.27,1.27,0,0,0-.94,0,1.56,1.56,0,0,0-.4.27l-.15.15a1.53,1.53,0,0,0-1-.39,1.55,1.55,0,0,0-1,.39A1.53,1.53,0,0,0,10.65.12a1.57,1.57,0,0,0-1,.45L6.26,3.93a.46.46,0,0,0-.11.16.45.45,0,0,0,0,.2.43.43,0,0,0,0,.19.62.62,0,0,0,.11.17.71.71,0,0,0,.17.11.58.58,0,0,0,.19,0,.71.71,0,0,0,.2,0A.91.91,0,0,0,7,4.65l3.35-3.36a.56.56,0,0,1,.32-.15.58.58,0,0,1,.34.09L1.17,11.06a.49.49,0,0,0-.14.23L0,15.37a.46.46,0,0,0,0,.26.5.5,0,0,0,.13.22A.5.5,0,0,0,.37,16a.46.46,0,0,0,.26,0l4.08-1a.49.49,0,0,0,.23-.14L15.43,4.35a1.62,1.62,0,0,0,.45-1,1.53,1.53,0,0,0-.39-1.06l.15-.15A1.41,1.41,0,0,0,15.91,1.7ZM14.82,3.46a.62.62,0,0,1-.11.17L4.32,14l-3.11.78L2,11.68,12.37,1.29a.55.55,0,0,1,.36-.15.51.51,0,0,1,.36.15h0l1.62,1.62a.46.46,0,0,1,.11.16.45.45,0,0,1,0,.2A.43.43,0,0,1,14.82,3.46Z"/></g></g></svg>