<svg xmlns="http://www.w3.org/2000/svg" viewBox="0 0 16 16"><g id="Layer_2" data-name="Layer 2"><g id="Layer_1-2" data-name="Layer 1"><path d="M13.66,2.34A8,8,0,1,0,16,8,8,8,0,0,0,13.66,2.34ZM13,13A7,7,0,1,1,15,8,7,7,0,0,1,13,13Z"/><path d="M7.82,10.61a.94.94,0,1,0,0,1.87.94.94,0,1,0,0-1.87Z"/><path d="M8,3.5A2.47,2.47,0,0,0,5.25,5.79a.29.29,0,0,0,0,.09A.22.22,0,0,0,5.32,6L5.4,6h.92a.28.28,0,0,0,.27-.25A1.25,1.25,0,0,1,7.93,4.65,1.16,1.16,0,0,1,9.24,5.82c0,.63-.37.92-1,1.37a2.26,2.26,0,0,0-1.17,2v.22a.25.25,0,0,0,.08.18.26.26,0,0,0,.17.07h.81a.25.25,0,0,0,.18-.08.22.22,0,0,0,.07-.17V9.28c0-.72.28-.92,1-1.48a2.46,2.46,0,0,0,1.25-2.06C10.68,4.23,9.4,3.5,8,3.5Z"/></g></g></svg>