<svg xmlns="http://www.w3.org/2000/svg" viewBox="0 0 14 16"><g id="Layer_2" data-name="Layer 2"><g id="Layer_1-2" data-name="Layer 1"><path d="M13.72,7A7,7,0,0,0,7,2V.29A.27.27,0,0,0,7,.14.22.22,0,0,0,6.83,0a.29.29,0,0,0-.16,0,.3.3,0,0,0-.15.07L3.77,2.36a.39.39,0,0,0-.08.1.27.27,0,0,0,0,.12.28.28,0,0,0,0,.13.39.39,0,0,0,.08.1L6.52,5.1a.3.3,0,0,0,.15.07.29.29,0,0,0,.16,0A.22.22,0,0,0,7,5a.27.27,0,0,0,0-.15V3.17a5.88,5.88,0,0,1,3.5,1.16,5.94,5.94,0,0,1,2.1,3A5.87,5.87,0,0,1,12.46,11a5.79,5.79,0,0,1-2.31,2.87,5.88,5.88,0,0,1-3.58.91A5.83,5.83,0,0,1,1.7,6.57a.61.61,0,0,0,0-.44.54.54,0,0,0-.3-.31.58.58,0,0,0-.43,0,.59.59,0,0,0-.33.29,7,7,0,0,0,1.77,8.2,7,7,0,0,0,11.15-2.83A7.11,7.11,0,0,0,13.72,7Z"/></g></g></svg>