<svg xmlns="http://www.w3.org/2000/svg" viewBox="0 0 16 16"><g id="Layer_2" data-name="Layer 2"><g id="Layer_1-2" data-name="Layer 1"><path d="M8,4.75a3.24,3.24,0,1,0,2.3,1A3.27,3.27,0,0,0,8,4.75ZM9.59,9.59A2.25,2.25,0,1,1,10.25,8,2.25,2.25,0,0,1,9.59,9.59Z"/><path d="M14.66,6.2l-.32-.09A.88.88,0,0,1,14,5.92a.84.84,0,0,1-.22-.31,1,1,0,0,1-.07-.38,1,1,0,0,1,.11-.38L14,4.56A1.87,1.87,0,0,0,11.44,2l-.29.16a1,1,0,0,1-.38.11,1,1,0,0,1-.38-.07A.84.84,0,0,1,10.08,2a.88.88,0,0,1-.19-.34L9.8,1.34a1.88,1.88,0,0,0-3.6,0l-.09.32A.88.88,0,0,1,5.92,2a.84.84,0,0,1-.31.22,1,1,0,0,1-.38.07,1,1,0,0,1-.38-.11L4.56,2A1.87,1.87,0,0,0,2,4.56l.16.29a1,1,0,0,1,.11.38,1,1,0,0,1-.07.38A.84.84,0,0,1,2,5.92a.88.88,0,0,1-.34.19l-.32.09a1.88,1.88,0,0,0,0,3.6l.32.09a.88.88,0,0,1,.34.19.84.84,0,0,1,.22.31,1,1,0,0,1,.07.38,1,1,0,0,1-.11.38L2,11.44A1.87,1.87,0,0,0,4.56,14l.29-.16a1,1,0,0,1,.38-.11,1,1,0,0,1,.38.07.84.84,0,0,1,.31.22.88.88,0,0,1,.19.34l.09.32a1.88,1.88,0,0,0,3.6,0l.09-.32a.88.88,0,0,1,.19-.34.84.84,0,0,1,.31-.22,1,1,0,0,1,.38-.07,1,1,0,0,1,.38.11l.29.16A1.87,1.87,0,0,0,14,11.44l-.16-.29a1,1,0,0,1-.11-.38,1,1,0,0,1,.07-.38.84.84,0,0,1,.22-.31.88.88,0,0,1,.34-.19l.32-.09A1.88,1.88,0,0,0,14.66,6.2Zm-.29,2.64-.31.09a2,2,0,0,0-.73.4,1.91,1.91,0,0,0-.48.68,2.08,2.08,0,0,0-.14.82,2,2,0,0,0,.23.79l.16.3a.87.87,0,0,1-1.18,1.18l-.3-.16a2,2,0,0,0-.79-.23,2.08,2.08,0,0,0-.82.14,2,2,0,0,0-.68.48,2,2,0,0,0-.4.73l-.09.31a.88.88,0,0,1-1.68,0l-.09-.31a2,2,0,0,0-.4-.73A2,2,0,0,0,6,12.85a2.08,2.08,0,0,0-.82-.14,2,2,0,0,0-.79.23l-.3.16A.87.87,0,0,1,2.9,11.92l.16-.3a2,2,0,0,0,.23-.79A2.08,2.08,0,0,0,3.15,10a1.91,1.91,0,0,0-.48-.68,2,2,0,0,0-.73-.4l-.31-.09a.87.87,0,0,1,0-1.68l.31-.09a1.89,1.89,0,0,0,.73-.41,1.88,1.88,0,0,0,.61-1.49,1.8,1.8,0,0,0-.22-.79l-.16-.3A.87.87,0,0,1,4.08,2.9l.3.16a2,2,0,0,0,.79.23A2.08,2.08,0,0,0,6,3.15a2,2,0,0,0,.68-.48,2,2,0,0,0,.4-.73l.09-.31a.87.87,0,0,1,1.68,0l.09.31a2,2,0,0,0,.4.73,1.91,1.91,0,0,0,.68.48,2.08,2.08,0,0,0,.82.14,2,2,0,0,0,.79-.23l.3-.16A.87.87,0,0,1,13.1,4.08l-.16.3a1.8,1.8,0,0,0-.22.79,1.78,1.78,0,0,0,.14.82,1.89,1.89,0,0,0,.47.68,2,2,0,0,0,.73.4l.31.09A.88.88,0,0,1,14.37,8.84Z"/></g></g></svg>