<svg xmlns="http://www.w3.org/2000/svg" viewBox="0 0 15.92 16"><g id="Layer_2" data-name="Layer 2"><g id="Layer_1-2" data-name="Layer 1"><path d="M10.67,12.75H5.25a1,1,0,0,0-.76.32,1.05,1.05,0,0,0-.32.76v1.09a1.05,1.05,0,0,0,.32.76,1,1,0,0,0,.76.32h5.42a1,1,0,0,0,.76-.32,1.05,1.05,0,0,0,.32-.76V13.83a1.05,1.05,0,0,0-.32-.76A1,1,0,0,0,10.67,12.75Zm0,2.17H5.25V13.83h5.42Z"/><path d="M15.62,7.68,8.75.34A1,1,0,0,0,8.39.09,1.07,1.07,0,0,0,8,0a1,1,0,0,0-.43.09,1,1,0,0,0-.36.25L.29,7.68a1.09,1.09,0,0,0,.8,1.82H4.17v1.08a1.06,1.06,0,0,0,.32.77,1.07,1.07,0,0,0,.76.32h5.42a1.07,1.07,0,0,0,.76-.32,1.06,1.06,0,0,0,.32-.77V9.5h3.08A1.08,1.08,0,0,0,15.62,7.68Zm-3.87.74A1.08,1.08,0,0,0,10.67,9.5v1.08H5.25V9.5A1.08,1.08,0,0,0,4.17,8.42H1.09L8,1.08l6.87,7.34Z"/></g></g></svg>