<svg xmlns="http://www.w3.org/2000/svg" viewBox="0 0 60 60">
    <defs>
        <style>.cls-1{fill:#9fdf9f;}.cls-2{fill:#fff;}</style>
    </defs>
    <circle class="cls-1" cx="30" cy="30" r="30"/>
    <path class="cls-2" d="M40.93,17.52c0-.88-.6-1.47-1.79-1.77A28.59,28.59,0,0,0,32.28,15q-13.22,0-13.21,7.55A6.38,6.38,0,0,0,20,25.91a1.71,1.71,0,0,0,1.54.85,2.36,2.36,0,0,0,1.45-.5,1.53,1.53,0,0,0,.69-1.2,1.23,1.23,0,0,0-.19-.66,4.13,4.13,0,0,1-.63-2,2.89,2.89,0,0,1,2.08-2.77,18.28,18.28,0,0,1,6.45-.85c1.09,0,2.26.07,3.52.19l-.57,4.75c-.12,1.17-.3,2.5-.53,4a26.56,26.56,0,0,0-8.93,5.1,9.21,9.21,0,0,0-3.4,7,5.06,5.06,0,0,0,1.45,3.71A5.5,5.5,0,0,0,27,45q8.87,0,11.66-20.85c0-.17.14-1,.35-2.45.14-1.09.24-1.86.28-2.3a1.5,1.5,0,0,0,1.26-.47A2.12,2.12,0,0,0,40.93,17.52ZM30.46,39.31c-1,1.55-2.06,2.33-3.09,2.33A1.76,1.76,0,0,1,26,41.07a2.54,2.54,0,0,1-.5-1.67q0-4.87,7.67-8.24Q32,37,30.46,39.31Z"/>
</svg>